# Icosahedron - 20 faces
# Golden ratio vertices

v 0.000000 -1.000000 -1.618034
v 0.000000 1.000000 -1.618034
v 0.000000 -1.000000 1.618034
v 0.000000 1.000000 1.618034
v -1.618034 0.000000 -1.000000
v -1.618034 0.000000 1.000000
v 1.618034 0.000000 -1.000000
v 1.618034 0.000000 1.000000
v -1.000000 -1.618034 0.000000
v 1.000000 -1.618034 0.000000
v -1.000000 1.618034 0.000000
v 1.000000 1.618034 0.000000

# 20 triangular faces
f 1 2 7
f 1 7 10
f 1 10 9
f 1 9 5
f 1 5 2
f 2 11 12
f 2 12 7
f 2 5 11
f 3 4 6
f 3 6 9
f 3 9 10
f 3 10 8
f 3 8 4
f 4 8 12
f 4 12 11
f 4 11 6
f 5 9 6
f 5 6 11
f 7 12 8
f 7 8 10
